# xmcd
#
# Track frame offsets:
#	150
#	13426
#	26998
#	42138
#	56969
#	71692
#	86771
#	103741
#	119407
#	131779
#	145603
#
# Disc length: 2173 seconds
#
# Revision: 2
# Processed by: cddbd v1.5.2PL0 Copyright (c) Steve Scherf et al.
# Submitted via: EasyCDDAExtractor 16.0.1.1
#
DISCID=a8087b0b
DTITLE=Deryl Dodd - Full Circle
DYEAR=2006
DGENRE=Country
TTITLE0=Wearin' A Hole
TTITLE1=Thanks To The Man
TTITLE2=I'm Not Home Right Now
TTITLE3=Into Outlaw
TTITLE4=That's The Stuff
TTITLE5=Feels Like Home To Me
TTITLE6=I Won't Run
TTITLE7=Solid Ground
TTITLE8=It's Only 'cause You're Lonely
TTITLE9=Someone Is Waiting For Me
TTITLE10=Songs Of The Family
EXTD=
EXTT0=
EXTT1=
EXTT2=
EXTT3=
EXTT4=
EXTT5=
EXTT6=
EXTT7=
EXTT8=
EXTT9=
EXTT10=
PLAYORDER=
